M48
; DRILL file {KiCad 5.1.4-e60b266~84~ubuntu18.04.1} date Thu 31 Oct 2019 07:17:57 PM EDT
; FORMAT={3:3/ absolute / metric / suppress leading zeros}
; #@! TF.CreationDate,2019-10-31T19:17:57-04:00
; #@! TF.GenerationSoftware,Kicad,Pcbnew,5.1.4-e60b266~84~ubuntu18.04.1
FMAT,2
METRIC,TZ
T1C0.700
T2C0.800
T3C0.900
T4C1.000
T5C1.300
T6C3.200
%
G90
G05
T1
X204343Y-94742
X211963Y-94742
T2
X206629Y-74295
X209129Y-74295
T3
X206756Y-101346
X209296Y-101346
T4
X182880Y-50800
X182880Y-53340
X182880Y-55880
X182880Y-58420
X182880Y-60960
X182880Y-63500
X182880Y-66040
X182880Y-68580
X182880Y-71120
X182880Y-73660
X182880Y-76200
X182880Y-78740
X182880Y-81280
X182880Y-83820
X182880Y-86360
X182880Y-88900
X182880Y-91440
X182880Y-93980
X182880Y-96520
X182880Y-99060
X182880Y-101600
X182880Y-104140
X182880Y-106680
X182880Y-109220
X182880Y-111760
X182880Y-114300
X182880Y-116840
X182880Y-119380
X182880Y-121920
X182880Y-124460
X182880Y-127000
X182880Y-129540
X182880Y-132080
X182880Y-134620
X182880Y-137160
X182880Y-139700
X182880Y-142240
X182880Y-144780
X182880Y-147320
X182880Y-149860
X207772Y-62484
X207772Y-65024
X180340Y-50800
X180340Y-53340
X180340Y-55880
X180340Y-58420
X180340Y-60960
X180340Y-63500
X180340Y-66040
X180340Y-68580
X180340Y-71120
X180340Y-73660
X180340Y-76200
X180340Y-78740
X180340Y-81280
X180340Y-83820
X180340Y-86360
X180340Y-88900
X180340Y-91440
X180340Y-93980
X180340Y-96520
X180340Y-99060
X180340Y-101600
X180340Y-104140
X180340Y-106680
X180340Y-109220
X180340Y-111760
X180340Y-114300
X180340Y-116840
X180340Y-119380
X180340Y-121920
X180340Y-124460
X180340Y-127000
X180340Y-129540
X180340Y-132080
X180340Y-134620
X180340Y-137160
X180340Y-139700
X180340Y-142240
X180340Y-144780
X180340Y-147320
X180340Y-149860
X127000Y-50800
X127000Y-53340
X127000Y-55880
X127000Y-58420
X127000Y-60960
X127000Y-63500
X127000Y-66040
X127000Y-68580
X127000Y-71120
X127000Y-73660
X127000Y-76200
X127000Y-78740
X127000Y-81280
X127000Y-83820
X127000Y-86360
X127000Y-88900
X127000Y-91440
X127000Y-93980
X127000Y-96520
X127000Y-99060
X127000Y-101600
X127000Y-104140
X127000Y-106680
X127000Y-109220
X127000Y-111760
X127000Y-114300
X127000Y-116840
X127000Y-119380
X127000Y-121920
X127000Y-124460
X127000Y-127000
X127000Y-129540
X127000Y-132080
X127000Y-134620
X127000Y-137160
X127000Y-139700
X127000Y-142240
X127000Y-144780
X127000Y-147320
X127000Y-149860
X129540Y-50800
X129540Y-53340
X129540Y-55880
X129540Y-58420
X129540Y-60960
X129540Y-63500
X129540Y-66040
X129540Y-68580
X129540Y-71120
X129540Y-73660
X129540Y-76200
X129540Y-78740
X129540Y-81280
X129540Y-83820
X129540Y-86360
X129540Y-88900
X129540Y-91440
X129540Y-93980
X129540Y-96520
X129540Y-99060
X129540Y-101600
X129540Y-104140
X129540Y-106680
X129540Y-109220
X129540Y-111760
X129540Y-114300
X129540Y-116840
X129540Y-119380
X129540Y-121920
X129540Y-124460
X129540Y-127000
X129540Y-129540
X129540Y-132080
X129540Y-134620
X129540Y-137160
X129540Y-139700
X129540Y-142240
X129540Y-144780
X129540Y-147320
X129540Y-149860
X195580Y-50800
X195580Y-53340
X195580Y-55880
X195580Y-58420
X195580Y-60960
X195580Y-63500
X195580Y-66040
X195580Y-68580
X195580Y-71120
X195580Y-73660
X195580Y-76200
X195580Y-78740
X195580Y-81280
X195580Y-83820
X195580Y-86360
X195580Y-88900
X195580Y-91440
X195580Y-93980
X195580Y-96520
X195580Y-99060
X195580Y-101600
X195580Y-104140
X195580Y-106680
X195580Y-109220
X195580Y-111760
X195580Y-114300
X195580Y-116840
X195580Y-119380
X195580Y-121920
X195580Y-124460
X195580Y-127000
X195580Y-129540
X195580Y-132080
X195580Y-134620
X195580Y-137160
X195580Y-139700
X195580Y-142240
X195580Y-144780
X195580Y-147320
X195580Y-149860
X190500Y-50800
X190500Y-53340
X190500Y-55880
X190500Y-58420
X190500Y-60960
X190500Y-63500
X190500Y-66040
X190500Y-68580
X190500Y-71120
X190500Y-73660
X190500Y-76200
X190500Y-78740
X190500Y-81280
X190500Y-83820
X190500Y-86360
X190500Y-88900
X190500Y-91440
X190500Y-93980
X190500Y-96520
X190500Y-99060
X190500Y-101600
X190500Y-104140
X190500Y-106680
X190500Y-109220
X190500Y-111760
X190500Y-114300
X190500Y-116840
X190500Y-119380
X190500Y-121920
X190500Y-124460
X190500Y-127000
X190500Y-129540
X190500Y-132080
X190500Y-134620
X190500Y-137160
X190500Y-139700
X190500Y-142240
X190500Y-144780
X190500Y-147320
X190500Y-149860
X88900Y-50800
X88900Y-53340
X88900Y-55880
X88900Y-58420
X88900Y-60960
X88900Y-63500
X88900Y-66040
X88900Y-68580
X88900Y-71120
X88900Y-73660
X88900Y-76200
X88900Y-78740
X88900Y-81280
X88900Y-83820
X88900Y-86360
X88900Y-88900
X88900Y-91440
X88900Y-93980
X88900Y-96520
X88900Y-99060
X88900Y-101600
X88900Y-104140
X88900Y-106680
X88900Y-109220
X88900Y-111760
X88900Y-114300
X88900Y-116840
X88900Y-119380
X88900Y-121920
X88900Y-124460
X88900Y-127000
X88900Y-129540
X88900Y-132080
X88900Y-134620
X88900Y-137160
X88900Y-139700
X88900Y-142240
X88900Y-144780
X88900Y-147320
X88900Y-149860
X91440Y-50800
X91440Y-53340
X91440Y-55880
X91440Y-58420
X91440Y-60960
X91440Y-63500
X91440Y-66040
X91440Y-68580
X91440Y-71120
X91440Y-73660
X91440Y-76200
X91440Y-78740
X91440Y-81280
X91440Y-83820
X91440Y-86360
X91440Y-88900
X91440Y-91440
X91440Y-93980
X91440Y-96520
X91440Y-99060
X91440Y-101600
X91440Y-104140
X91440Y-106680
X91440Y-109220
X91440Y-111760
X91440Y-114300
X91440Y-116840
X91440Y-119380
X91440Y-121920
X91440Y-124460
X91440Y-127000
X91440Y-129540
X91440Y-132080
X91440Y-134620
X91440Y-137160
X91440Y-139700
X91440Y-142240
X91440Y-144780
X91440Y-147320
X91440Y-149860
X187960Y-50800
X187960Y-53340
X187960Y-55880
X187960Y-58420
X187960Y-60960
X187960Y-63500
X187960Y-66040
X187960Y-68580
X187960Y-71120
X187960Y-73660
X187960Y-76200
X187960Y-78740
X187960Y-81280
X187960Y-83820
X187960Y-86360
X187960Y-88900
X187960Y-91440
X187960Y-93980
X187960Y-96520
X187960Y-99060
X187960Y-101600
X187960Y-104140
X187960Y-106680
X187960Y-109220
X187960Y-111760
X187960Y-114300
X187960Y-116840
X187960Y-119380
X187960Y-121920
X187960Y-124460
X187960Y-127000
X187960Y-129540
X187960Y-132080
X187960Y-134620
X187960Y-137160
X187960Y-139700
X187960Y-142240
X187960Y-144780
X187960Y-147320
X187960Y-149860
X50800Y-50800
X50800Y-53340
X50800Y-55880
X50800Y-58420
X50800Y-60960
X50800Y-63500
X50800Y-66040
X50800Y-68580
X50800Y-71120
X50800Y-73660
X50800Y-76200
X50800Y-78740
X50800Y-81280
X50800Y-83820
X50800Y-86360
X50800Y-88900
X50800Y-91440
X50800Y-93980
X50800Y-96520
X50800Y-99060
X50800Y-101600
X50800Y-104140
X50800Y-106680
X50800Y-109220
X50800Y-111760
X50800Y-114300
X50800Y-116840
X50800Y-119380
X50800Y-121920
X50800Y-124460
X50800Y-127000
X50800Y-129540
X50800Y-132080
X50800Y-134620
X50800Y-137160
X50800Y-139700
X50800Y-142240
X50800Y-144780
X50800Y-147320
X50800Y-149860
X53340Y-50800
X53340Y-53340
X53340Y-55880
X53340Y-58420
X53340Y-60960
X53340Y-63500
X53340Y-66040
X53340Y-68580
X53340Y-71120
X53340Y-73660
X53340Y-76200
X53340Y-78740
X53340Y-81280
X53340Y-83820
X53340Y-86360
X53340Y-88900
X53340Y-91440
X53340Y-93980
X53340Y-96520
X53340Y-99060
X53340Y-101600
X53340Y-104140
X53340Y-106680
X53340Y-109220
X53340Y-111760
X53340Y-114300
X53340Y-116840
X53340Y-119380
X53340Y-121920
X53340Y-124460
X53340Y-127000
X53340Y-129540
X53340Y-132080
X53340Y-134620
X53340Y-137160
X53340Y-139700
X53340Y-142240
X53340Y-144780
X53340Y-147320
X53340Y-149860
X198120Y-50800
X198120Y-53340
X198120Y-55880
X198120Y-58420
X198120Y-60960
X198120Y-63500
X198120Y-66040
X198120Y-68580
X198120Y-71120
X198120Y-73660
X198120Y-76200
X198120Y-78740
X198120Y-81280
X198120Y-83820
X198120Y-86360
X198120Y-88900
X198120Y-91440
X198120Y-93980
X198120Y-96520
X198120Y-99060
X198120Y-101600
X198120Y-104140
X198120Y-106680
X198120Y-109220
X198120Y-111760
X198120Y-114300
X198120Y-116840
X198120Y-119380
X198120Y-121920
X198120Y-124460
X198120Y-127000
X198120Y-129540
X198120Y-132080
X198120Y-134620
X198120Y-137160
X198120Y-139700
X198120Y-142240
X198120Y-144780
X198120Y-147320
X198120Y-149860
X69850Y-50800
X69850Y-53340
X69850Y-55880
X69850Y-58420
X69850Y-60960
X69850Y-63500
X69850Y-66040
X69850Y-68580
X69850Y-71120
X69850Y-73660
X69850Y-76200
X69850Y-78740
X69850Y-81280
X69850Y-83820
X69850Y-86360
X69850Y-88900
X69850Y-91440
X69850Y-93980
X69850Y-96520
X69850Y-99060
X69850Y-101600
X69850Y-104140
X69850Y-106680
X69850Y-109220
X69850Y-111760
X69850Y-114300
X69850Y-116840
X69850Y-119380
X69850Y-121920
X69850Y-124460
X69850Y-127000
X69850Y-129540
X69850Y-132080
X69850Y-134620
X69850Y-137160
X69850Y-139700
X69850Y-142240
X69850Y-144780
X69850Y-147320
X69850Y-149860
X72390Y-50800
X72390Y-53340
X72390Y-55880
X72390Y-58420
X72390Y-60960
X72390Y-63500
X72390Y-66040
X72390Y-68580
X72390Y-71120
X72390Y-73660
X72390Y-76200
X72390Y-78740
X72390Y-81280
X72390Y-83820
X72390Y-86360
X72390Y-88900
X72390Y-91440
X72390Y-93980
X72390Y-96520
X72390Y-99060
X72390Y-101600
X72390Y-104140
X72390Y-106680
X72390Y-109220
X72390Y-111760
X72390Y-114300
X72390Y-116840
X72390Y-119380
X72390Y-121920
X72390Y-124460
X72390Y-127000
X72390Y-129540
X72390Y-132080
X72390Y-134620
X72390Y-137160
X72390Y-139700
X72390Y-142240
X72390Y-144780
X72390Y-147320
X72390Y-149860
X107950Y-50800
X107950Y-53340
X107950Y-55880
X107950Y-58420
X107950Y-60960
X107950Y-63500
X107950Y-66040
X107950Y-68580
X107950Y-71120
X107950Y-73660
X107950Y-76200
X107950Y-78740
X107950Y-81280
X107950Y-83820
X107950Y-86360
X107950Y-88900
X107950Y-91440
X107950Y-93980
X107950Y-96520
X107950Y-99060
X107950Y-101600
X107950Y-104140
X107950Y-106680
X107950Y-109220
X107950Y-111760
X107950Y-114300
X107950Y-116840
X107950Y-119380
X107950Y-121920
X107950Y-124460
X107950Y-127000
X107950Y-129540
X107950Y-132080
X107950Y-134620
X107950Y-137160
X107950Y-139700
X107950Y-142240
X107950Y-144780
X107950Y-147320
X107950Y-149860
X110490Y-50800
X110490Y-53340
X110490Y-55880
X110490Y-58420
X110490Y-60960
X110490Y-63500
X110490Y-66040
X110490Y-68580
X110490Y-71120
X110490Y-73660
X110490Y-76200
X110490Y-78740
X110490Y-81280
X110490Y-83820
X110490Y-86360
X110490Y-88900
X110490Y-91440
X110490Y-93980
X110490Y-96520
X110490Y-99060
X110490Y-101600
X110490Y-104140
X110490Y-106680
X110490Y-109220
X110490Y-111760
X110490Y-114300
X110490Y-116840
X110490Y-119380
X110490Y-121920
X110490Y-124460
X110490Y-127000
X110490Y-129540
X110490Y-132080
X110490Y-134620
X110490Y-137160
X110490Y-139700
X110490Y-142240
X110490Y-144780
X110490Y-147320
X110490Y-149860
X185420Y-50800
X185420Y-53340
X185420Y-55880
X185420Y-58420
X185420Y-60960
X185420Y-63500
X185420Y-66040
X185420Y-68580
X185420Y-71120
X185420Y-73660
X185420Y-76200
X185420Y-78740
X185420Y-81280
X185420Y-83820
X185420Y-86360
X185420Y-88900
X185420Y-91440
X185420Y-93980
X185420Y-96520
X185420Y-99060
X185420Y-101600
X185420Y-104140
X185420Y-106680
X185420Y-109220
X185420Y-111760
X185420Y-114300
X185420Y-116840
X185420Y-119380
X185420Y-121920
X185420Y-124460
X185420Y-127000
X185420Y-129540
X185420Y-132080
X185420Y-134620
X185420Y-137160
X185420Y-139700
X185420Y-142240
X185420Y-144780
X185420Y-147320
X185420Y-149860
X165100Y-50800
X165100Y-53340
X165100Y-55880
X165100Y-58420
X165100Y-60960
X165100Y-63500
X165100Y-66040
X165100Y-68580
X165100Y-71120
X165100Y-73660
X165100Y-76200
X165100Y-78740
X165100Y-81280
X165100Y-83820
X165100Y-86360
X165100Y-88900
X165100Y-91440
X165100Y-93980
X165100Y-96520
X165100Y-99060
X165100Y-101600
X165100Y-104140
X165100Y-106680
X165100Y-109220
X165100Y-111760
X165100Y-114300
X165100Y-116840
X165100Y-119380
X165100Y-121920
X165100Y-124460
X165100Y-127000
X165100Y-129540
X165100Y-132080
X165100Y-134620
X165100Y-137160
X165100Y-139700
X165100Y-142240
X165100Y-144780
X165100Y-147320
X165100Y-149860
X167640Y-50800
X167640Y-53340
X167640Y-55880
X167640Y-58420
X167640Y-60960
X167640Y-63500
X167640Y-66040
X167640Y-68580
X167640Y-71120
X167640Y-73660
X167640Y-76200
X167640Y-78740
X167640Y-81280
X167640Y-83820
X167640Y-86360
X167640Y-88900
X167640Y-91440
X167640Y-93980
X167640Y-96520
X167640Y-99060
X167640Y-101600
X167640Y-104140
X167640Y-106680
X167640Y-109220
X167640Y-111760
X167640Y-114300
X167640Y-116840
X167640Y-119380
X167640Y-121920
X167640Y-124460
X167640Y-127000
X167640Y-129540
X167640Y-132080
X167640Y-134620
X167640Y-137160
X167640Y-139700
X167640Y-142240
X167640Y-144780
X167640Y-147320
X167640Y-149860
X146050Y-50800
X146050Y-53340
X146050Y-55880
X146050Y-58420
X146050Y-60960
X146050Y-63500
X146050Y-66040
X146050Y-68580
X146050Y-71120
X146050Y-73660
X146050Y-76200
X146050Y-78740
X146050Y-81280
X146050Y-83820
X146050Y-86360
X146050Y-88900
X146050Y-91440
X146050Y-93980
X146050Y-96520
X146050Y-99060
X146050Y-101600
X146050Y-104140
X146050Y-106680
X146050Y-109220
X146050Y-111760
X146050Y-114300
X146050Y-116840
X146050Y-119380
X146050Y-121920
X146050Y-124460
X146050Y-127000
X146050Y-129540
X146050Y-132080
X146050Y-134620
X146050Y-137160
X146050Y-139700
X146050Y-142240
X146050Y-144780
X146050Y-147320
X146050Y-149860
X148590Y-50800
X148590Y-53340
X148590Y-55880
X148590Y-58420
X148590Y-60960
X148590Y-63500
X148590Y-66040
X148590Y-68580
X148590Y-71120
X148590Y-73660
X148590Y-76200
X148590Y-78740
X148590Y-81280
X148590Y-83820
X148590Y-86360
X148590Y-88900
X148590Y-91440
X148590Y-93980
X148590Y-96520
X148590Y-99060
X148590Y-101600
X148590Y-104140
X148590Y-106680
X148590Y-109220
X148590Y-111760
X148590Y-114300
X148590Y-116840
X148590Y-119380
X148590Y-121920
X148590Y-124460
X148590Y-127000
X148590Y-129540
X148590Y-132080
X148590Y-134620
X148590Y-137160
X148590Y-139700
X148590Y-142240
X148590Y-144780
X148590Y-147320
X148590Y-149860
X200660Y-50800
X200660Y-53340
X200660Y-55880
X200660Y-58420
X200660Y-60960
X200660Y-63500
X200660Y-66040
X200660Y-68580
X200660Y-71120
X200660Y-73660
X200660Y-76200
X200660Y-78740
X200660Y-81280
X200660Y-83820
X200660Y-86360
X200660Y-88900
X200660Y-91440
X200660Y-93980
X200660Y-96520
X200660Y-99060
X200660Y-101600
X200660Y-104140
X200660Y-106680
X200660Y-109220
X200660Y-111760
X200660Y-114300
X200660Y-116840
X200660Y-119380
X200660Y-121920
X200660Y-124460
X200660Y-127000
X200660Y-129540
X200660Y-132080
X200660Y-134620
X200660Y-137160
X200660Y-139700
X200660Y-142240
X200660Y-144780
X200660Y-147320
X200660Y-149860
X193040Y-50800
X193040Y-53340
X193040Y-55880
X193040Y-58420
X193040Y-60960
X193040Y-63500
X193040Y-66040
X193040Y-68580
X193040Y-71120
X193040Y-73660
X193040Y-76200
X193040Y-78740
X193040Y-81280
X193040Y-83820
X193040Y-86360
X193040Y-88900
X193040Y-91440
X193040Y-93980
X193040Y-96520
X193040Y-99060
X193040Y-101600
X193040Y-104140
X193040Y-106680
X193040Y-109220
X193040Y-111760
X193040Y-114300
X193040Y-116840
X193040Y-119380
X193040Y-121920
X193040Y-124460
X193040Y-127000
X193040Y-129540
X193040Y-132080
X193040Y-134620
X193040Y-137160
X193040Y-139700
X193040Y-142240
X193040Y-144780
X193040Y-147320
X193040Y-149860
X177800Y-50800
X177800Y-53340
X177800Y-55880
X177800Y-58420
X177800Y-60960
X177800Y-63500
X177800Y-66040
X177800Y-68580
X177800Y-71120
X177800Y-73660
X177800Y-76200
X177800Y-78740
X177800Y-81280
X177800Y-83820
X177800Y-86360
X177800Y-88900
X177800Y-91440
X177800Y-93980
X177800Y-96520
X177800Y-99060
X177800Y-101600
X177800Y-104140
X177800Y-106680
X177800Y-109220
X177800Y-111760
X177800Y-114300
X177800Y-116840
X177800Y-119380
X177800Y-121920
X177800Y-124460
X177800Y-127000
X177800Y-129540
X177800Y-132080
X177800Y-134620
X177800Y-137160
X177800Y-139700
X177800Y-142240
X177800Y-144780
X177800Y-147320
X177800Y-149860
T5
X207772Y-83987
X207772Y-88987
T6
X207010Y-53340
X44450Y-53340
X44450Y-147320
X207010Y-147320
T0
M30
