G04 #@! TF.GenerationSoftware,KiCad,Pcbnew,5.1.4-e60b266~84~ubuntu18.04.1*
G04 #@! TF.CreationDate,2019-10-31T19:17:03-04:00*
G04 #@! TF.ProjectId,OSH_Park_2_layer,4f53485f-5061-4726-9b5f-325f6c617965,rev?*
G04 #@! TF.SameCoordinates,Original*
G04 #@! TF.FileFunction,Legend,Top*
G04 #@! TF.FilePolarity,Positive*
%FSLAX46Y46*%
G04 Gerber Fmt 4.6, Leading zero omitted, Abs format (unit mm)*
G04 Created by KiCad (PCBNEW 5.1.4-e60b266~84~ubuntu18.04.1) date 2019-10-31 19:17:03*
%MOMM*%
%LPD*%
G04 APERTURE LIST*
%ADD10C,0.300000*%
%ADD11C,0.150000*%
%ADD12C,0.120000*%
%ADD13C,0.127000*%
%ADD14C,0.050000*%
G04 APERTURE END LIST*
D10*
X41750000Y-112574333D02*
X42883333Y-112574333D01*
X43016666Y-112641000D01*
X43083333Y-112707666D01*
X43150000Y-112841000D01*
X43150000Y-113041000D01*
X43083333Y-113174333D01*
X42616666Y-112574333D02*
X42683333Y-112707666D01*
X42683333Y-112974333D01*
X42616666Y-113107666D01*
X42550000Y-113174333D01*
X42416666Y-113241000D01*
X42016666Y-113241000D01*
X41883333Y-113174333D01*
X41816666Y-113107666D01*
X41750000Y-112974333D01*
X41750000Y-112707666D01*
X41816666Y-112574333D01*
X42616666Y-111374333D02*
X42683333Y-111507666D01*
X42683333Y-111774333D01*
X42616666Y-111907666D01*
X42483333Y-111974333D01*
X41950000Y-111974333D01*
X41816666Y-111907666D01*
X41750000Y-111774333D01*
X41750000Y-111507666D01*
X41816666Y-111374333D01*
X41950000Y-111307666D01*
X42083333Y-111307666D01*
X42216666Y-111974333D01*
X41750000Y-110707666D02*
X42683333Y-110707666D01*
X41883333Y-110707666D02*
X41816666Y-110641000D01*
X41750000Y-110507666D01*
X41750000Y-110307666D01*
X41816666Y-110174333D01*
X41950000Y-110107666D01*
X42683333Y-110107666D01*
X42616666Y-108907666D02*
X42683333Y-109041000D01*
X42683333Y-109307666D01*
X42616666Y-109441000D01*
X42483333Y-109507666D01*
X41950000Y-109507666D01*
X41816666Y-109441000D01*
X41750000Y-109307666D01*
X41750000Y-109041000D01*
X41816666Y-108907666D01*
X41950000Y-108841000D01*
X42083333Y-108841000D01*
X42216666Y-109507666D01*
X42683333Y-108241000D02*
X41750000Y-108241000D01*
X42016666Y-108241000D02*
X41883333Y-108174333D01*
X41816666Y-108107666D01*
X41750000Y-107974333D01*
X41750000Y-107841000D01*
X42683333Y-107374333D02*
X41750000Y-107374333D01*
X41283333Y-107374333D02*
X41350000Y-107441000D01*
X41416666Y-107374333D01*
X41350000Y-107307666D01*
X41283333Y-107374333D01*
X41416666Y-107374333D01*
X42616666Y-106107666D02*
X42683333Y-106241000D01*
X42683333Y-106507666D01*
X42616666Y-106641000D01*
X42550000Y-106707666D01*
X42416666Y-106774333D01*
X42016666Y-106774333D01*
X41883333Y-106707666D01*
X41816666Y-106641000D01*
X41750000Y-106507666D01*
X41750000Y-106241000D01*
X41816666Y-106107666D01*
X41750000Y-104441000D02*
X43150000Y-104441000D01*
X41816666Y-104441000D02*
X41750000Y-104307666D01*
X41750000Y-104041000D01*
X41816666Y-103907666D01*
X41883333Y-103841000D01*
X42016666Y-103774333D01*
X42416666Y-103774333D01*
X42550000Y-103841000D01*
X42616666Y-103907666D01*
X42683333Y-104041000D01*
X42683333Y-104307666D01*
X42616666Y-104441000D01*
X42683333Y-102574333D02*
X41950000Y-102574333D01*
X41816666Y-102641000D01*
X41750000Y-102774333D01*
X41750000Y-103041000D01*
X41816666Y-103174333D01*
X42616666Y-102574333D02*
X42683333Y-102707666D01*
X42683333Y-103041000D01*
X42616666Y-103174333D01*
X42483333Y-103241000D01*
X42350000Y-103241000D01*
X42216666Y-103174333D01*
X42150000Y-103041000D01*
X42150000Y-102707666D01*
X42083333Y-102574333D01*
X42616666Y-101974333D02*
X42683333Y-101841000D01*
X42683333Y-101574333D01*
X42616666Y-101441000D01*
X42483333Y-101374333D01*
X42416666Y-101374333D01*
X42283333Y-101441000D01*
X42216666Y-101574333D01*
X42216666Y-101774333D01*
X42150000Y-101907666D01*
X42016666Y-101974333D01*
X41950000Y-101974333D01*
X41816666Y-101907666D01*
X41750000Y-101774333D01*
X41750000Y-101574333D01*
X41816666Y-101441000D01*
X42616666Y-100841000D02*
X42683333Y-100707666D01*
X42683333Y-100441000D01*
X42616666Y-100307666D01*
X42483333Y-100241000D01*
X42416666Y-100241000D01*
X42283333Y-100307666D01*
X42216666Y-100441000D01*
X42216666Y-100641000D01*
X42150000Y-100774333D01*
X42016666Y-100841000D01*
X41950000Y-100841000D01*
X41816666Y-100774333D01*
X41750000Y-100641000D01*
X41750000Y-100441000D01*
X41816666Y-100307666D01*
X42683333Y-99641000D02*
X41750000Y-99641000D01*
X41283333Y-99641000D02*
X41350000Y-99707666D01*
X41416666Y-99641000D01*
X41350000Y-99574333D01*
X41283333Y-99641000D01*
X41416666Y-99641000D01*
X41750000Y-99107666D02*
X42683333Y-98774333D01*
X41750000Y-98441000D01*
X42616666Y-97374333D02*
X42683333Y-97507666D01*
X42683333Y-97774333D01*
X42616666Y-97907666D01*
X42483333Y-97974333D01*
X41950000Y-97974333D01*
X41816666Y-97907666D01*
X41750000Y-97774333D01*
X41750000Y-97507666D01*
X41816666Y-97374333D01*
X41950000Y-97307666D01*
X42083333Y-97307666D01*
X42216666Y-97974333D01*
X42683333Y-95641000D02*
X41283333Y-95641000D01*
X41816666Y-95641000D02*
X41750000Y-95507666D01*
X41750000Y-95241000D01*
X41816666Y-95107666D01*
X41883333Y-95041000D01*
X42016666Y-94974333D01*
X42416666Y-94974333D01*
X42550000Y-95041000D01*
X42616666Y-95107666D01*
X42683333Y-95241000D01*
X42683333Y-95507666D01*
X42616666Y-95641000D01*
X42683333Y-93774333D02*
X41950000Y-93774333D01*
X41816666Y-93841000D01*
X41750000Y-93974333D01*
X41750000Y-94241000D01*
X41816666Y-94374333D01*
X42616666Y-93774333D02*
X42683333Y-93907666D01*
X42683333Y-94241000D01*
X42616666Y-94374333D01*
X42483333Y-94441000D01*
X42350000Y-94441000D01*
X42216666Y-94374333D01*
X42150000Y-94241000D01*
X42150000Y-93907666D01*
X42083333Y-93774333D01*
X42616666Y-92507666D02*
X42683333Y-92641000D01*
X42683333Y-92907666D01*
X42616666Y-93041000D01*
X42550000Y-93107666D01*
X42416666Y-93174333D01*
X42016666Y-93174333D01*
X41883333Y-93107666D01*
X41816666Y-93041000D01*
X41750000Y-92907666D01*
X41750000Y-92641000D01*
X41816666Y-92507666D01*
X42683333Y-91907666D02*
X41283333Y-91907666D01*
X42150000Y-91774333D02*
X42683333Y-91374333D01*
X41750000Y-91374333D02*
X42283333Y-91907666D01*
X41750000Y-90774333D02*
X43150000Y-90774333D01*
X41816666Y-90774333D02*
X41750000Y-90641000D01*
X41750000Y-90374333D01*
X41816666Y-90241000D01*
X41883333Y-90174333D01*
X42016666Y-90107666D01*
X42416666Y-90107666D01*
X42550000Y-90174333D01*
X42616666Y-90241000D01*
X42683333Y-90374333D01*
X42683333Y-90641000D01*
X42616666Y-90774333D01*
X42683333Y-89307666D02*
X42616666Y-89441000D01*
X42483333Y-89507666D01*
X41283333Y-89507666D01*
X42683333Y-88174333D02*
X41950000Y-88174333D01*
X41816666Y-88241000D01*
X41750000Y-88374333D01*
X41750000Y-88641000D01*
X41816666Y-88774333D01*
X42616666Y-88174333D02*
X42683333Y-88307666D01*
X42683333Y-88641000D01*
X42616666Y-88774333D01*
X42483333Y-88841000D01*
X42350000Y-88841000D01*
X42216666Y-88774333D01*
X42150000Y-88641000D01*
X42150000Y-88307666D01*
X42083333Y-88174333D01*
X41750000Y-87507666D02*
X42683333Y-87507666D01*
X41883333Y-87507666D02*
X41816666Y-87441000D01*
X41750000Y-87307666D01*
X41750000Y-87107666D01*
X41816666Y-86974333D01*
X41950000Y-86907666D01*
X42683333Y-86907666D01*
X42616666Y-85707666D02*
X42683333Y-85841000D01*
X42683333Y-86107666D01*
X42616666Y-86241000D01*
X42483333Y-86307666D01*
X41950000Y-86307666D01*
X41816666Y-86241000D01*
X41750000Y-86107666D01*
X41750000Y-85841000D01*
X41816666Y-85707666D01*
X41950000Y-85641000D01*
X42083333Y-85641000D01*
X42216666Y-86307666D01*
X45083333Y-125341000D02*
X43683333Y-125341000D01*
X45083333Y-124741000D02*
X44350000Y-124741000D01*
X44216666Y-124807666D01*
X44150000Y-124941000D01*
X44150000Y-125141000D01*
X44216666Y-125274333D01*
X44283333Y-125341000D01*
X44150000Y-124274333D02*
X44150000Y-123741000D01*
X43683333Y-124074333D02*
X44883333Y-124074333D01*
X45016666Y-124007666D01*
X45083333Y-123874333D01*
X45083333Y-123741000D01*
X44150000Y-123474333D02*
X44150000Y-122941000D01*
X43683333Y-123274333D02*
X44883333Y-123274333D01*
X45016666Y-123207666D01*
X45083333Y-123074333D01*
X45083333Y-122941000D01*
X44150000Y-122474333D02*
X45550000Y-122474333D01*
X44216666Y-122474333D02*
X44150000Y-122341000D01*
X44150000Y-122074333D01*
X44216666Y-121941000D01*
X44283333Y-121874333D01*
X44416666Y-121807666D01*
X44816666Y-121807666D01*
X44950000Y-121874333D01*
X45016666Y-121941000D01*
X45083333Y-122074333D01*
X45083333Y-122341000D01*
X45016666Y-122474333D01*
X45016666Y-121274333D02*
X45083333Y-121141000D01*
X45083333Y-120874333D01*
X45016666Y-120741000D01*
X44883333Y-120674333D01*
X44816666Y-120674333D01*
X44683333Y-120741000D01*
X44616666Y-120874333D01*
X44616666Y-121074333D01*
X44550000Y-121207666D01*
X44416666Y-121274333D01*
X44350000Y-121274333D01*
X44216666Y-121207666D01*
X44150000Y-121074333D01*
X44150000Y-120874333D01*
X44216666Y-120741000D01*
X44950000Y-120074333D02*
X45016666Y-120007666D01*
X45083333Y-120074333D01*
X45016666Y-120141000D01*
X44950000Y-120074333D01*
X45083333Y-120074333D01*
X44216666Y-120074333D02*
X44283333Y-120007666D01*
X44350000Y-120074333D01*
X44283333Y-120141000D01*
X44216666Y-120074333D01*
X44350000Y-120074333D01*
X43616666Y-118407666D02*
X45416666Y-119607666D01*
X43616666Y-116941000D02*
X45416666Y-118141000D01*
X44150000Y-115874333D02*
X45283333Y-115874333D01*
X45416666Y-115941000D01*
X45483333Y-116007666D01*
X45550000Y-116141000D01*
X45550000Y-116341000D01*
X45483333Y-116474333D01*
X45016666Y-115874333D02*
X45083333Y-116007666D01*
X45083333Y-116274333D01*
X45016666Y-116407666D01*
X44950000Y-116474333D01*
X44816666Y-116541000D01*
X44416666Y-116541000D01*
X44283333Y-116474333D01*
X44216666Y-116407666D01*
X44150000Y-116274333D01*
X44150000Y-116007666D01*
X44216666Y-115874333D01*
X45083333Y-115207666D02*
X44150000Y-115207666D01*
X43683333Y-115207666D02*
X43750000Y-115274333D01*
X43816666Y-115207666D01*
X43750000Y-115141000D01*
X43683333Y-115207666D01*
X43816666Y-115207666D01*
X44150000Y-114741000D02*
X44150000Y-114207666D01*
X43683333Y-114541000D02*
X44883333Y-114541000D01*
X45016666Y-114474333D01*
X45083333Y-114341000D01*
X45083333Y-114207666D01*
X45083333Y-113741000D02*
X43683333Y-113741000D01*
X45083333Y-113141000D02*
X44350000Y-113141000D01*
X44216666Y-113207666D01*
X44150000Y-113341000D01*
X44150000Y-113541000D01*
X44216666Y-113674333D01*
X44283333Y-113741000D01*
X44150000Y-111874333D02*
X45083333Y-111874333D01*
X44150000Y-112474333D02*
X44883333Y-112474333D01*
X45016666Y-112407666D01*
X45083333Y-112274333D01*
X45083333Y-112074333D01*
X45016666Y-111941000D01*
X44950000Y-111874333D01*
X45083333Y-111207666D02*
X43683333Y-111207666D01*
X44216666Y-111207666D02*
X44150000Y-111074333D01*
X44150000Y-110807666D01*
X44216666Y-110674333D01*
X44283333Y-110607666D01*
X44416666Y-110541000D01*
X44816666Y-110541000D01*
X44950000Y-110607666D01*
X45016666Y-110674333D01*
X45083333Y-110807666D01*
X45083333Y-111074333D01*
X45016666Y-111207666D01*
X44950000Y-109941000D02*
X45016666Y-109874333D01*
X45083333Y-109941000D01*
X45016666Y-110007666D01*
X44950000Y-109941000D01*
X45083333Y-109941000D01*
X45016666Y-108674333D02*
X45083333Y-108807666D01*
X45083333Y-109074333D01*
X45016666Y-109207666D01*
X44950000Y-109274333D01*
X44816666Y-109341000D01*
X44416666Y-109341000D01*
X44283333Y-109274333D01*
X44216666Y-109207666D01*
X44150000Y-109074333D01*
X44150000Y-108807666D01*
X44216666Y-108674333D01*
X45083333Y-107874333D02*
X45016666Y-108007666D01*
X44950000Y-108074333D01*
X44816666Y-108141000D01*
X44416666Y-108141000D01*
X44283333Y-108074333D01*
X44216666Y-108007666D01*
X44150000Y-107874333D01*
X44150000Y-107674333D01*
X44216666Y-107541000D01*
X44283333Y-107474333D01*
X44416666Y-107407666D01*
X44816666Y-107407666D01*
X44950000Y-107474333D01*
X45016666Y-107541000D01*
X45083333Y-107674333D01*
X45083333Y-107874333D01*
X45083333Y-106807666D02*
X44150000Y-106807666D01*
X44283333Y-106807666D02*
X44216666Y-106741000D01*
X44150000Y-106607666D01*
X44150000Y-106407666D01*
X44216666Y-106274333D01*
X44350000Y-106207666D01*
X45083333Y-106207666D01*
X44350000Y-106207666D02*
X44216666Y-106141000D01*
X44150000Y-106007666D01*
X44150000Y-105807666D01*
X44216666Y-105674333D01*
X44350000Y-105607666D01*
X45083333Y-105607666D01*
X43616666Y-103941000D02*
X45416666Y-105141000D01*
X45083333Y-102874333D02*
X43683333Y-102874333D01*
X45016666Y-102874333D02*
X45083333Y-103007666D01*
X45083333Y-103274333D01*
X45016666Y-103407666D01*
X44950000Y-103474333D01*
X44816666Y-103541000D01*
X44416666Y-103541000D01*
X44283333Y-103474333D01*
X44216666Y-103407666D01*
X44150000Y-103274333D01*
X44150000Y-103007666D01*
X44216666Y-102874333D01*
X45083333Y-101607666D02*
X44350000Y-101607666D01*
X44216666Y-101674333D01*
X44150000Y-101807666D01*
X44150000Y-102074333D01*
X44216666Y-102207666D01*
X45016666Y-101607666D02*
X45083333Y-101741000D01*
X45083333Y-102074333D01*
X45016666Y-102207666D01*
X44883333Y-102274333D01*
X44750000Y-102274333D01*
X44616666Y-102207666D01*
X44550000Y-102074333D01*
X44550000Y-101741000D01*
X44483333Y-101607666D01*
X44150000Y-101074333D02*
X45083333Y-100741000D01*
X44150000Y-100407666D01*
X45016666Y-99341000D02*
X45083333Y-99474333D01*
X45083333Y-99741000D01*
X45016666Y-99874333D01*
X44883333Y-99941000D01*
X44350000Y-99941000D01*
X44216666Y-99874333D01*
X44150000Y-99741000D01*
X44150000Y-99474333D01*
X44216666Y-99341000D01*
X44350000Y-99274333D01*
X44483333Y-99274333D01*
X44616666Y-99941000D01*
X45083333Y-98674333D02*
X43683333Y-98674333D01*
X45083333Y-98074333D02*
X44350000Y-98074333D01*
X44216666Y-98141000D01*
X44150000Y-98274333D01*
X44150000Y-98474333D01*
X44216666Y-98607666D01*
X44283333Y-98674333D01*
X45083333Y-97207666D02*
X45016666Y-97341000D01*
X44950000Y-97407666D01*
X44816666Y-97474333D01*
X44416666Y-97474333D01*
X44283333Y-97407666D01*
X44216666Y-97341000D01*
X44150000Y-97207666D01*
X44150000Y-97007666D01*
X44216666Y-96874333D01*
X44283333Y-96807666D01*
X44416666Y-96741000D01*
X44816666Y-96741000D01*
X44950000Y-96807666D01*
X45016666Y-96874333D01*
X45083333Y-97007666D01*
X45083333Y-97207666D01*
X43616666Y-95141000D02*
X45416666Y-96341000D01*
X45016666Y-94141000D02*
X45083333Y-94274333D01*
X45083333Y-94541000D01*
X45016666Y-94674333D01*
X44883333Y-94741000D01*
X44350000Y-94741000D01*
X44216666Y-94674333D01*
X44150000Y-94541000D01*
X44150000Y-94274333D01*
X44216666Y-94141000D01*
X44350000Y-94074333D01*
X44483333Y-94074333D01*
X44616666Y-94741000D01*
X45083333Y-92874333D02*
X44350000Y-92874333D01*
X44216666Y-92941000D01*
X44150000Y-93074333D01*
X44150000Y-93341000D01*
X44216666Y-93474333D01*
X45016666Y-92874333D02*
X45083333Y-93007666D01*
X45083333Y-93341000D01*
X45016666Y-93474333D01*
X44883333Y-93541000D01*
X44750000Y-93541000D01*
X44616666Y-93474333D01*
X44550000Y-93341000D01*
X44550000Y-93007666D01*
X44483333Y-92874333D01*
X45016666Y-92274333D02*
X45083333Y-92141000D01*
X45083333Y-91874333D01*
X45016666Y-91741000D01*
X44883333Y-91674333D01*
X44816666Y-91674333D01*
X44683333Y-91741000D01*
X44616666Y-91874333D01*
X44616666Y-92074333D01*
X44550000Y-92207666D01*
X44416666Y-92274333D01*
X44350000Y-92274333D01*
X44216666Y-92207666D01*
X44150000Y-92074333D01*
X44150000Y-91874333D01*
X44216666Y-91741000D01*
X44150000Y-91207666D02*
X45083333Y-90874333D01*
X44150000Y-90541000D02*
X45083333Y-90874333D01*
X45416666Y-91007666D01*
X45483333Y-91074333D01*
X45550000Y-91207666D01*
X45016666Y-89407666D02*
X45083333Y-89541000D01*
X45083333Y-89807666D01*
X45016666Y-89941000D01*
X44950000Y-90007666D01*
X44816666Y-90074333D01*
X44416666Y-90074333D01*
X44283333Y-90007666D01*
X44216666Y-89941000D01*
X44150000Y-89807666D01*
X44150000Y-89541000D01*
X44216666Y-89407666D01*
X44150000Y-88807666D02*
X45550000Y-88807666D01*
X44216666Y-88807666D02*
X44150000Y-88674333D01*
X44150000Y-88407666D01*
X44216666Y-88274333D01*
X44283333Y-88207666D01*
X44416666Y-88141000D01*
X44816666Y-88141000D01*
X44950000Y-88207666D01*
X45016666Y-88274333D01*
X45083333Y-88407666D01*
X45083333Y-88674333D01*
X45016666Y-88807666D01*
X44150000Y-86941000D02*
X45083333Y-86941000D01*
X44150000Y-87541000D02*
X44883333Y-87541000D01*
X45016666Y-87474333D01*
X45083333Y-87341000D01*
X45083333Y-87141000D01*
X45016666Y-87007666D01*
X44950000Y-86941000D01*
X43616666Y-85274333D02*
X45416666Y-86474333D01*
X45083333Y-84807666D02*
X43683333Y-84807666D01*
X44216666Y-84807666D02*
X44150000Y-84674333D01*
X44150000Y-84407666D01*
X44216666Y-84274333D01*
X44283333Y-84207666D01*
X44416666Y-84141000D01*
X44816666Y-84141000D01*
X44950000Y-84207666D01*
X45016666Y-84274333D01*
X45083333Y-84407666D01*
X45083333Y-84674333D01*
X45016666Y-84807666D01*
X45083333Y-82941000D02*
X44350000Y-82941000D01*
X44216666Y-83007666D01*
X44150000Y-83141000D01*
X44150000Y-83407666D01*
X44216666Y-83541000D01*
X45016666Y-82941000D02*
X45083333Y-83074333D01*
X45083333Y-83407666D01*
X45016666Y-83541000D01*
X44883333Y-83607666D01*
X44750000Y-83607666D01*
X44616666Y-83541000D01*
X44550000Y-83407666D01*
X44550000Y-83074333D01*
X44483333Y-82941000D01*
X45016666Y-81674333D02*
X45083333Y-81807666D01*
X45083333Y-82074333D01*
X45016666Y-82207666D01*
X44950000Y-82274333D01*
X44816666Y-82341000D01*
X44416666Y-82341000D01*
X44283333Y-82274333D01*
X44216666Y-82207666D01*
X44150000Y-82074333D01*
X44150000Y-81807666D01*
X44216666Y-81674333D01*
X45083333Y-81074333D02*
X43683333Y-81074333D01*
X44550000Y-80941000D02*
X45083333Y-80541000D01*
X44150000Y-80541000D02*
X44683333Y-81074333D01*
X44150000Y-79941000D02*
X45550000Y-79941000D01*
X44216666Y-79941000D02*
X44150000Y-79807666D01*
X44150000Y-79541000D01*
X44216666Y-79407666D01*
X44283333Y-79341000D01*
X44416666Y-79274333D01*
X44816666Y-79274333D01*
X44950000Y-79341000D01*
X45016666Y-79407666D01*
X45083333Y-79541000D01*
X45083333Y-79807666D01*
X45016666Y-79941000D01*
X45083333Y-78474333D02*
X45016666Y-78607666D01*
X44883333Y-78674333D01*
X43683333Y-78674333D01*
X45083333Y-77341000D02*
X44350000Y-77341000D01*
X44216666Y-77407666D01*
X44150000Y-77541000D01*
X44150000Y-77807666D01*
X44216666Y-77941000D01*
X45016666Y-77341000D02*
X45083333Y-77474333D01*
X45083333Y-77807666D01*
X45016666Y-77941000D01*
X44883333Y-78007666D01*
X44750000Y-78007666D01*
X44616666Y-77941000D01*
X44550000Y-77807666D01*
X44550000Y-77474333D01*
X44483333Y-77341000D01*
X44150000Y-76674333D02*
X45083333Y-76674333D01*
X44283333Y-76674333D02*
X44216666Y-76607666D01*
X44150000Y-76474333D01*
X44150000Y-76274333D01*
X44216666Y-76141000D01*
X44350000Y-76074333D01*
X45083333Y-76074333D01*
X45016666Y-74874333D02*
X45083333Y-75007666D01*
X45083333Y-75274333D01*
X45016666Y-75407666D01*
X44883333Y-75474333D01*
X44350000Y-75474333D01*
X44216666Y-75407666D01*
X44150000Y-75274333D01*
X44150000Y-75007666D01*
X44216666Y-74874333D01*
X44350000Y-74807666D01*
X44483333Y-74807666D01*
X44616666Y-75474333D01*
X43816666Y-74274333D02*
X43750000Y-74207666D01*
X43683333Y-74074333D01*
X43683333Y-73741000D01*
X43750000Y-73607666D01*
X43816666Y-73541000D01*
X43950000Y-73474333D01*
X44083333Y-73474333D01*
X44283333Y-73541000D01*
X45083333Y-74341000D01*
X45083333Y-73474333D01*
X46550000Y-109441000D02*
X47483333Y-109107666D01*
X46550000Y-108774333D01*
X46083333Y-107974333D02*
X46083333Y-107841000D01*
X46150000Y-107707666D01*
X46216666Y-107641000D01*
X46350000Y-107574333D01*
X46616666Y-107507666D01*
X46950000Y-107507666D01*
X47216666Y-107574333D01*
X47350000Y-107641000D01*
X47416666Y-107707666D01*
X47483333Y-107841000D01*
X47483333Y-107974333D01*
X47416666Y-108107666D01*
X47350000Y-108174333D01*
X47216666Y-108241000D01*
X46950000Y-108307666D01*
X46616666Y-108307666D01*
X46350000Y-108241000D01*
X46216666Y-108174333D01*
X46150000Y-108107666D01*
X46083333Y-107974333D01*
X47350000Y-106907666D02*
X47416666Y-106841000D01*
X47483333Y-106907666D01*
X47416666Y-106974333D01*
X47350000Y-106907666D01*
X47483333Y-106907666D01*
X47483333Y-105507666D02*
X47483333Y-106307666D01*
X47483333Y-105907666D02*
X46083333Y-105907666D01*
X46283333Y-106041000D01*
X46416666Y-106174333D01*
X46483333Y-106307666D01*
X46083333Y-103974333D02*
X46083333Y-103107666D01*
X46616666Y-103574333D01*
X46616666Y-103374333D01*
X46683333Y-103241000D01*
X46750000Y-103174333D01*
X46883333Y-103107666D01*
X47216666Y-103107666D01*
X47350000Y-103174333D01*
X47416666Y-103241000D01*
X47483333Y-103374333D01*
X47483333Y-103774333D01*
X47416666Y-103907666D01*
X47350000Y-103974333D01*
X47483333Y-101774333D02*
X47483333Y-102574333D01*
X47483333Y-102174333D02*
X46083333Y-102174333D01*
X46283333Y-102307666D01*
X46416666Y-102441000D01*
X46483333Y-102574333D01*
X46950000Y-101174333D02*
X46950000Y-100107666D01*
X46083333Y-99174333D02*
X46083333Y-98907666D01*
X46150000Y-98774333D01*
X46283333Y-98641000D01*
X46550000Y-98574333D01*
X47016666Y-98574333D01*
X47283333Y-98641000D01*
X47416666Y-98774333D01*
X47483333Y-98907666D01*
X47483333Y-99174333D01*
X47416666Y-99307666D01*
X47283333Y-99441000D01*
X47016666Y-99507666D01*
X46550000Y-99507666D01*
X46283333Y-99441000D01*
X46150000Y-99307666D01*
X46083333Y-99174333D01*
X47416666Y-97374333D02*
X47483333Y-97507666D01*
X47483333Y-97774333D01*
X47416666Y-97907666D01*
X47350000Y-97974333D01*
X47216666Y-98041000D01*
X46816666Y-98041000D01*
X46683333Y-97974333D01*
X46616666Y-97907666D01*
X46550000Y-97774333D01*
X46550000Y-97507666D01*
X46616666Y-97374333D01*
X46550000Y-96974333D02*
X46550000Y-96441000D01*
X46083333Y-96774333D02*
X47283333Y-96774333D01*
X47416666Y-96707666D01*
X47483333Y-96574333D01*
X47483333Y-96441000D01*
X46950000Y-95974333D02*
X46950000Y-94907666D01*
X46216666Y-94307666D02*
X46150000Y-94241000D01*
X46083333Y-94107666D01*
X46083333Y-93774333D01*
X46150000Y-93641000D01*
X46216666Y-93574333D01*
X46350000Y-93507666D01*
X46483333Y-93507666D01*
X46683333Y-93574333D01*
X47483333Y-94374333D01*
X47483333Y-93507666D01*
X46083333Y-92641000D02*
X46083333Y-92507666D01*
X46150000Y-92374333D01*
X46216666Y-92307666D01*
X46350000Y-92241000D01*
X46616666Y-92174333D01*
X46950000Y-92174333D01*
X47216666Y-92241000D01*
X47350000Y-92307666D01*
X47416666Y-92374333D01*
X47483333Y-92507666D01*
X47483333Y-92641000D01*
X47416666Y-92774333D01*
X47350000Y-92841000D01*
X47216666Y-92907666D01*
X46950000Y-92974333D01*
X46616666Y-92974333D01*
X46350000Y-92907666D01*
X46216666Y-92841000D01*
X46150000Y-92774333D01*
X46083333Y-92641000D01*
X47483333Y-90841000D02*
X47483333Y-91641000D01*
X47483333Y-91241000D02*
X46083333Y-91241000D01*
X46283333Y-91374333D01*
X46416666Y-91507666D01*
X46483333Y-91641000D01*
X47483333Y-90174333D02*
X47483333Y-89907666D01*
X47416666Y-89774333D01*
X47350000Y-89707666D01*
X47150000Y-89574333D01*
X46883333Y-89507666D01*
X46350000Y-89507666D01*
X46216666Y-89574333D01*
X46150000Y-89641000D01*
X46083333Y-89774333D01*
X46083333Y-90041000D01*
X46150000Y-90174333D01*
X46216666Y-90241000D01*
X46350000Y-90307666D01*
X46683333Y-90307666D01*
X46816666Y-90241000D01*
X46883333Y-90174333D01*
X46950000Y-90041000D01*
X46950000Y-89774333D01*
X46883333Y-89641000D01*
X46816666Y-89574333D01*
X46683333Y-89507666D01*
D11*
X210082190Y-64987714D02*
X211049809Y-64987714D01*
X210082190Y-62447714D02*
X211049809Y-62447714D01*
X210566000Y-62931523D02*
X210566000Y-61963904D01*
D12*
X203869302Y-71580000D02*
X203869302Y-72380000D01*
X203469302Y-71980000D02*
X204269302Y-71980000D01*
X211960000Y-73762000D02*
X211960000Y-74828000D01*
X211920000Y-73527000D02*
X211920000Y-75063000D01*
X211880000Y-73347000D02*
X211880000Y-75243000D01*
X211840000Y-73197000D02*
X211840000Y-75393000D01*
X211800000Y-73066000D02*
X211800000Y-75524000D01*
X211760000Y-72949000D02*
X211760000Y-75641000D01*
X211720000Y-72842000D02*
X211720000Y-75748000D01*
X211680000Y-72743000D02*
X211680000Y-75847000D01*
X211640000Y-72650000D02*
X211640000Y-75940000D01*
X211600000Y-72564000D02*
X211600000Y-76026000D01*
X211560000Y-72482000D02*
X211560000Y-76108000D01*
X211520000Y-72405000D02*
X211520000Y-76185000D01*
X211480000Y-72331000D02*
X211480000Y-76259000D01*
X211440000Y-72261000D02*
X211440000Y-76329000D01*
X211400000Y-72193000D02*
X211400000Y-76397000D01*
X211360000Y-72129000D02*
X211360000Y-76461000D01*
X211320000Y-72067000D02*
X211320000Y-76523000D01*
X211280000Y-72008000D02*
X211280000Y-76582000D01*
X211240000Y-71950000D02*
X211240000Y-76640000D01*
X211200000Y-71895000D02*
X211200000Y-76695000D01*
X211160000Y-71841000D02*
X211160000Y-76749000D01*
X211120000Y-71790000D02*
X211120000Y-76800000D01*
X211080000Y-71739000D02*
X211080000Y-76851000D01*
X211040000Y-71691000D02*
X211040000Y-76899000D01*
X211000000Y-71644000D02*
X211000000Y-76946000D01*
X210960000Y-71598000D02*
X210960000Y-76992000D01*
X210920000Y-71554000D02*
X210920000Y-77036000D01*
X210880000Y-71511000D02*
X210880000Y-77079000D01*
X210840000Y-71469000D02*
X210840000Y-77121000D01*
X210800000Y-71428000D02*
X210800000Y-77162000D01*
X210760000Y-71388000D02*
X210760000Y-77202000D01*
X210720000Y-71350000D02*
X210720000Y-77240000D01*
X210680000Y-71312000D02*
X210680000Y-77278000D01*
X210640000Y-71276000D02*
X210640000Y-77314000D01*
X210600000Y-71240000D02*
X210600000Y-77350000D01*
X210560000Y-71205000D02*
X210560000Y-77385000D01*
X210520000Y-71171000D02*
X210520000Y-77419000D01*
X210480000Y-71139000D02*
X210480000Y-77451000D01*
X210440000Y-71106000D02*
X210440000Y-77484000D01*
X210400000Y-71075000D02*
X210400000Y-77515000D01*
X210360000Y-71045000D02*
X210360000Y-77545000D01*
X210320000Y-71015000D02*
X210320000Y-77575000D01*
X210280000Y-70986000D02*
X210280000Y-77604000D01*
X210240000Y-70957000D02*
X210240000Y-77633000D01*
X210200000Y-70930000D02*
X210200000Y-77660000D01*
X210160000Y-75335000D02*
X210160000Y-77687000D01*
X210160000Y-70903000D02*
X210160000Y-73255000D01*
X210120000Y-75335000D02*
X210120000Y-77713000D01*
X210120000Y-70877000D02*
X210120000Y-73255000D01*
X210080000Y-75335000D02*
X210080000Y-77739000D01*
X210080000Y-70851000D02*
X210080000Y-73255000D01*
X210040000Y-75335000D02*
X210040000Y-77764000D01*
X210040000Y-70826000D02*
X210040000Y-73255000D01*
X210000000Y-75335000D02*
X210000000Y-77788000D01*
X210000000Y-70802000D02*
X210000000Y-73255000D01*
X209960000Y-75335000D02*
X209960000Y-77812000D01*
X209960000Y-70778000D02*
X209960000Y-73255000D01*
X209920000Y-75335000D02*
X209920000Y-77835000D01*
X209920000Y-70755000D02*
X209920000Y-73255000D01*
X209880000Y-75335000D02*
X209880000Y-77857000D01*
X209880000Y-70733000D02*
X209880000Y-73255000D01*
X209840000Y-75335000D02*
X209840000Y-77879000D01*
X209840000Y-70711000D02*
X209840000Y-73255000D01*
X209800000Y-75335000D02*
X209800000Y-77901000D01*
X209800000Y-70689000D02*
X209800000Y-73255000D01*
X209760000Y-75335000D02*
X209760000Y-77922000D01*
X209760000Y-70668000D02*
X209760000Y-73255000D01*
X209720000Y-75335000D02*
X209720000Y-77942000D01*
X209720000Y-70648000D02*
X209720000Y-73255000D01*
X209680000Y-75335000D02*
X209680000Y-77961000D01*
X209680000Y-70629000D02*
X209680000Y-73255000D01*
X209640000Y-75335000D02*
X209640000Y-77981000D01*
X209640000Y-70609000D02*
X209640000Y-73255000D01*
X209600000Y-75335000D02*
X209600000Y-77999000D01*
X209600000Y-70591000D02*
X209600000Y-73255000D01*
X209560000Y-75335000D02*
X209560000Y-78017000D01*
X209560000Y-70573000D02*
X209560000Y-73255000D01*
X209520000Y-75335000D02*
X209520000Y-78035000D01*
X209520000Y-70555000D02*
X209520000Y-73255000D01*
X209480000Y-75335000D02*
X209480000Y-78052000D01*
X209480000Y-70538000D02*
X209480000Y-73255000D01*
X209440000Y-75335000D02*
X209440000Y-78069000D01*
X209440000Y-70521000D02*
X209440000Y-73255000D01*
X209400000Y-75335000D02*
X209400000Y-78085000D01*
X209400000Y-70505000D02*
X209400000Y-73255000D01*
X209360000Y-75335000D02*
X209360000Y-78100000D01*
X209360000Y-70490000D02*
X209360000Y-73255000D01*
X209320000Y-75335000D02*
X209320000Y-78116000D01*
X209320000Y-70474000D02*
X209320000Y-73255000D01*
X209280000Y-75335000D02*
X209280000Y-78130000D01*
X209280000Y-70460000D02*
X209280000Y-73255000D01*
X209240000Y-75335000D02*
X209240000Y-78145000D01*
X209240000Y-70445000D02*
X209240000Y-73255000D01*
X209200000Y-75335000D02*
X209200000Y-78158000D01*
X209200000Y-70432000D02*
X209200000Y-73255000D01*
X209160000Y-75335000D02*
X209160000Y-78172000D01*
X209160000Y-70418000D02*
X209160000Y-73255000D01*
X209120000Y-75335000D02*
X209120000Y-78184000D01*
X209120000Y-70406000D02*
X209120000Y-73255000D01*
X209080000Y-75335000D02*
X209080000Y-78197000D01*
X209080000Y-70393000D02*
X209080000Y-73255000D01*
X209040000Y-75335000D02*
X209040000Y-78209000D01*
X209040000Y-70381000D02*
X209040000Y-73255000D01*
X209000000Y-75335000D02*
X209000000Y-78220000D01*
X209000000Y-70370000D02*
X209000000Y-73255000D01*
X208960000Y-75335000D02*
X208960000Y-78231000D01*
X208960000Y-70359000D02*
X208960000Y-73255000D01*
X208920000Y-75335000D02*
X208920000Y-78242000D01*
X208920000Y-70348000D02*
X208920000Y-73255000D01*
X208880000Y-75335000D02*
X208880000Y-78252000D01*
X208880000Y-70338000D02*
X208880000Y-73255000D01*
X208840000Y-75335000D02*
X208840000Y-78262000D01*
X208840000Y-70328000D02*
X208840000Y-73255000D01*
X208800000Y-75335000D02*
X208800000Y-78271000D01*
X208800000Y-70319000D02*
X208800000Y-73255000D01*
X208760000Y-75335000D02*
X208760000Y-78280000D01*
X208760000Y-70310000D02*
X208760000Y-73255000D01*
X208720000Y-75335000D02*
X208720000Y-78289000D01*
X208720000Y-70301000D02*
X208720000Y-73255000D01*
X208680000Y-75335000D02*
X208680000Y-78297000D01*
X208680000Y-70293000D02*
X208680000Y-73255000D01*
X208640000Y-75335000D02*
X208640000Y-78305000D01*
X208640000Y-70285000D02*
X208640000Y-73255000D01*
X208600000Y-75335000D02*
X208600000Y-78312000D01*
X208600000Y-70278000D02*
X208600000Y-73255000D01*
X208559000Y-75335000D02*
X208559000Y-78319000D01*
X208559000Y-70271000D02*
X208559000Y-73255000D01*
X208519000Y-75335000D02*
X208519000Y-78325000D01*
X208519000Y-70265000D02*
X208519000Y-73255000D01*
X208479000Y-75335000D02*
X208479000Y-78332000D01*
X208479000Y-70258000D02*
X208479000Y-73255000D01*
X208439000Y-75335000D02*
X208439000Y-78337000D01*
X208439000Y-70253000D02*
X208439000Y-73255000D01*
X208399000Y-75335000D02*
X208399000Y-78343000D01*
X208399000Y-70247000D02*
X208399000Y-73255000D01*
X208359000Y-75335000D02*
X208359000Y-78347000D01*
X208359000Y-70243000D02*
X208359000Y-73255000D01*
X208319000Y-75335000D02*
X208319000Y-78352000D01*
X208319000Y-70238000D02*
X208319000Y-73255000D01*
X208279000Y-75335000D02*
X208279000Y-78356000D01*
X208279000Y-70234000D02*
X208279000Y-73255000D01*
X208239000Y-75335000D02*
X208239000Y-78360000D01*
X208239000Y-70230000D02*
X208239000Y-73255000D01*
X208199000Y-75335000D02*
X208199000Y-78363000D01*
X208199000Y-70227000D02*
X208199000Y-73255000D01*
X208159000Y-75335000D02*
X208159000Y-78366000D01*
X208159000Y-70224000D02*
X208159000Y-73255000D01*
X208119000Y-75335000D02*
X208119000Y-78369000D01*
X208119000Y-70221000D02*
X208119000Y-73255000D01*
X208079000Y-70219000D02*
X208079000Y-78371000D01*
X208039000Y-70218000D02*
X208039000Y-78372000D01*
X207999000Y-70216000D02*
X207999000Y-78374000D01*
X207959000Y-70215000D02*
X207959000Y-78375000D01*
X207919000Y-70215000D02*
X207919000Y-78375000D01*
X207879000Y-70215000D02*
X207879000Y-78375000D01*
X211999000Y-74295000D02*
G75*
G03X211999000Y-74295000I-4120000J0D01*
G01*
X211016000Y-101346462D02*
G75*
G03X205466000Y-99801170I-2990000J462D01*
G01*
X211016000Y-101345538D02*
G75*
G02X205466000Y-102890830I-2990000J-462D01*
G01*
X210526000Y-101346000D02*
G75*
G03X210526000Y-101346000I-2500000J0D01*
G01*
X205466000Y-99801000D02*
X205466000Y-102891000D01*
X49470000Y-49470000D02*
X50800000Y-49470000D01*
X49470000Y-50800000D02*
X49470000Y-49470000D01*
X52070000Y-49470000D02*
X54670000Y-49470000D01*
X52070000Y-52070000D02*
X52070000Y-49470000D01*
X49470000Y-52070000D02*
X52070000Y-52070000D01*
X54670000Y-49470000D02*
X54670000Y-151190000D01*
X49470000Y-52070000D02*
X49470000Y-151190000D01*
X49470000Y-151190000D02*
X54670000Y-151190000D01*
X68520000Y-151190000D02*
X73720000Y-151190000D01*
X68520000Y-52070000D02*
X68520000Y-151190000D01*
X73720000Y-49470000D02*
X73720000Y-151190000D01*
X68520000Y-52070000D02*
X71120000Y-52070000D01*
X71120000Y-52070000D02*
X71120000Y-49470000D01*
X71120000Y-49470000D02*
X73720000Y-49470000D01*
X68520000Y-50800000D02*
X68520000Y-49470000D01*
X68520000Y-49470000D02*
X69850000Y-49470000D01*
X87570000Y-151190000D02*
X92770000Y-151190000D01*
X87570000Y-52070000D02*
X87570000Y-151190000D01*
X92770000Y-49470000D02*
X92770000Y-151190000D01*
X87570000Y-52070000D02*
X90170000Y-52070000D01*
X90170000Y-52070000D02*
X90170000Y-49470000D01*
X90170000Y-49470000D02*
X92770000Y-49470000D01*
X87570000Y-50800000D02*
X87570000Y-49470000D01*
X87570000Y-49470000D02*
X88900000Y-49470000D01*
X106620000Y-49470000D02*
X107950000Y-49470000D01*
X106620000Y-50800000D02*
X106620000Y-49470000D01*
X109220000Y-49470000D02*
X111820000Y-49470000D01*
X109220000Y-52070000D02*
X109220000Y-49470000D01*
X106620000Y-52070000D02*
X109220000Y-52070000D01*
X111820000Y-49470000D02*
X111820000Y-151190000D01*
X106620000Y-52070000D02*
X106620000Y-151190000D01*
X106620000Y-151190000D02*
X111820000Y-151190000D01*
X125670000Y-151190000D02*
X130870000Y-151190000D01*
X125670000Y-52070000D02*
X125670000Y-151190000D01*
X130870000Y-49470000D02*
X130870000Y-151190000D01*
X125670000Y-52070000D02*
X128270000Y-52070000D01*
X128270000Y-52070000D02*
X128270000Y-49470000D01*
X128270000Y-49470000D02*
X130870000Y-49470000D01*
X125670000Y-50800000D02*
X125670000Y-49470000D01*
X125670000Y-49470000D02*
X127000000Y-49470000D01*
X144720000Y-151190000D02*
X149920000Y-151190000D01*
X144720000Y-52070000D02*
X144720000Y-151190000D01*
X149920000Y-49470000D02*
X149920000Y-151190000D01*
X144720000Y-52070000D02*
X147320000Y-52070000D01*
X147320000Y-52070000D02*
X147320000Y-49470000D01*
X147320000Y-49470000D02*
X149920000Y-49470000D01*
X144720000Y-50800000D02*
X144720000Y-49470000D01*
X144720000Y-49470000D02*
X146050000Y-49470000D01*
X163770000Y-49470000D02*
X165100000Y-49470000D01*
X163770000Y-50800000D02*
X163770000Y-49470000D01*
X166370000Y-49470000D02*
X168970000Y-49470000D01*
X166370000Y-52070000D02*
X166370000Y-49470000D01*
X163770000Y-52070000D02*
X166370000Y-52070000D01*
X168970000Y-49470000D02*
X168970000Y-151190000D01*
X163770000Y-52070000D02*
X163770000Y-151190000D01*
X163770000Y-151190000D02*
X168970000Y-151190000D01*
X206442000Y-66354000D02*
X209102000Y-66354000D01*
X206442000Y-63754000D02*
X206442000Y-66354000D01*
X209102000Y-63754000D02*
X209102000Y-66354000D01*
X206442000Y-63754000D02*
X209102000Y-63754000D01*
X206442000Y-62484000D02*
X206442000Y-61154000D01*
X206442000Y-61154000D02*
X207772000Y-61154000D01*
D13*
X212772000Y-80887000D02*
X212772000Y-92087000D01*
X212772000Y-92087000D02*
X203772000Y-92087000D01*
X203772000Y-92087000D02*
X203772000Y-80887000D01*
X203772000Y-80887000D02*
X212772000Y-80887000D01*
D12*
X206233000Y-93822000D02*
X206233000Y-95662000D01*
X206233000Y-95662000D02*
X210073000Y-95662000D01*
X210073000Y-95662000D02*
X210073000Y-93822000D01*
X210073000Y-93822000D02*
X206233000Y-93822000D01*
X205283000Y-94742000D02*
X206233000Y-94742000D01*
X211023000Y-94742000D02*
X210073000Y-94742000D01*
D11*
X207712333Y-69402142D02*
X207664714Y-69449761D01*
X207521857Y-69497380D01*
X207426619Y-69497380D01*
X207283761Y-69449761D01*
X207188523Y-69354523D01*
X207140904Y-69259285D01*
X207093285Y-69068809D01*
X207093285Y-68925952D01*
X207140904Y-68735476D01*
X207188523Y-68640238D01*
X207283761Y-68545000D01*
X207426619Y-68497380D01*
X207521857Y-68497380D01*
X207664714Y-68545000D01*
X207712333Y-68592619D01*
X208664714Y-69497380D02*
X208093285Y-69497380D01*
X208379000Y-69497380D02*
X208379000Y-68497380D01*
X208283761Y-68640238D01*
X208188523Y-68735476D01*
X208093285Y-68783095D01*
X207287904Y-97838380D02*
X207287904Y-96838380D01*
X207526000Y-96838380D01*
X207668857Y-96886000D01*
X207764095Y-96981238D01*
X207811714Y-97076476D01*
X207859333Y-97266952D01*
X207859333Y-97409809D01*
X207811714Y-97600285D01*
X207764095Y-97695523D01*
X207668857Y-97790761D01*
X207526000Y-97838380D01*
X207287904Y-97838380D01*
X208811714Y-97838380D02*
X208240285Y-97838380D01*
X208526000Y-97838380D02*
X208526000Y-96838380D01*
X208430761Y-96981238D01*
X208335523Y-97076476D01*
X208240285Y-97124095D01*
X51736666Y-47922380D02*
X51736666Y-48636666D01*
X51689047Y-48779523D01*
X51593809Y-48874761D01*
X51450952Y-48922380D01*
X51355714Y-48922380D01*
X52736666Y-48922380D02*
X52165238Y-48922380D01*
X52450952Y-48922380D02*
X52450952Y-47922380D01*
X52355714Y-48065238D01*
X52260476Y-48160476D01*
X52165238Y-48208095D01*
X70786666Y-47922380D02*
X70786666Y-48636666D01*
X70739047Y-48779523D01*
X70643809Y-48874761D01*
X70500952Y-48922380D01*
X70405714Y-48922380D01*
X71215238Y-48017619D02*
X71262857Y-47970000D01*
X71358095Y-47922380D01*
X71596190Y-47922380D01*
X71691428Y-47970000D01*
X71739047Y-48017619D01*
X71786666Y-48112857D01*
X71786666Y-48208095D01*
X71739047Y-48350952D01*
X71167619Y-48922380D01*
X71786666Y-48922380D01*
X89836666Y-47922380D02*
X89836666Y-48636666D01*
X89789047Y-48779523D01*
X89693809Y-48874761D01*
X89550952Y-48922380D01*
X89455714Y-48922380D01*
X90217619Y-47922380D02*
X90836666Y-47922380D01*
X90503333Y-48303333D01*
X90646190Y-48303333D01*
X90741428Y-48350952D01*
X90789047Y-48398571D01*
X90836666Y-48493809D01*
X90836666Y-48731904D01*
X90789047Y-48827142D01*
X90741428Y-48874761D01*
X90646190Y-48922380D01*
X90360476Y-48922380D01*
X90265238Y-48874761D01*
X90217619Y-48827142D01*
X108886666Y-47922380D02*
X108886666Y-48636666D01*
X108839047Y-48779523D01*
X108743809Y-48874761D01*
X108600952Y-48922380D01*
X108505714Y-48922380D01*
X109791428Y-48255714D02*
X109791428Y-48922380D01*
X109553333Y-47874761D02*
X109315238Y-48589047D01*
X109934285Y-48589047D01*
X127936666Y-47922380D02*
X127936666Y-48636666D01*
X127889047Y-48779523D01*
X127793809Y-48874761D01*
X127650952Y-48922380D01*
X127555714Y-48922380D01*
X128889047Y-47922380D02*
X128412857Y-47922380D01*
X128365238Y-48398571D01*
X128412857Y-48350952D01*
X128508095Y-48303333D01*
X128746190Y-48303333D01*
X128841428Y-48350952D01*
X128889047Y-48398571D01*
X128936666Y-48493809D01*
X128936666Y-48731904D01*
X128889047Y-48827142D01*
X128841428Y-48874761D01*
X128746190Y-48922380D01*
X128508095Y-48922380D01*
X128412857Y-48874761D01*
X128365238Y-48827142D01*
X146986666Y-47922380D02*
X146986666Y-48636666D01*
X146939047Y-48779523D01*
X146843809Y-48874761D01*
X146700952Y-48922380D01*
X146605714Y-48922380D01*
X147891428Y-47922380D02*
X147700952Y-47922380D01*
X147605714Y-47970000D01*
X147558095Y-48017619D01*
X147462857Y-48160476D01*
X147415238Y-48350952D01*
X147415238Y-48731904D01*
X147462857Y-48827142D01*
X147510476Y-48874761D01*
X147605714Y-48922380D01*
X147796190Y-48922380D01*
X147891428Y-48874761D01*
X147939047Y-48827142D01*
X147986666Y-48731904D01*
X147986666Y-48493809D01*
X147939047Y-48398571D01*
X147891428Y-48350952D01*
X147796190Y-48303333D01*
X147605714Y-48303333D01*
X147510476Y-48350952D01*
X147462857Y-48398571D01*
X147415238Y-48493809D01*
X166036666Y-47922380D02*
X166036666Y-48636666D01*
X165989047Y-48779523D01*
X165893809Y-48874761D01*
X165750952Y-48922380D01*
X165655714Y-48922380D01*
X166417619Y-47922380D02*
X167084285Y-47922380D01*
X166655714Y-48922380D01*
X206962476Y-59606380D02*
X206962476Y-60320666D01*
X206914857Y-60463523D01*
X206819619Y-60558761D01*
X206676761Y-60606380D01*
X206581523Y-60606380D01*
X207391047Y-59701619D02*
X207438666Y-59654000D01*
X207533904Y-59606380D01*
X207772000Y-59606380D01*
X207867238Y-59654000D01*
X207914857Y-59701619D01*
X207962476Y-59796857D01*
X207962476Y-59892095D01*
X207914857Y-60034952D01*
X207343428Y-60606380D01*
X207962476Y-60606380D01*
X208581523Y-59606380D02*
X208676761Y-59606380D01*
X208772000Y-59654000D01*
X208819619Y-59701619D01*
X208867238Y-59796857D01*
X208914857Y-59987333D01*
X208914857Y-60225428D01*
X208867238Y-60415904D01*
X208819619Y-60511142D01*
X208772000Y-60558761D01*
X208676761Y-60606380D01*
X208581523Y-60606380D01*
X208486285Y-60558761D01*
X208438666Y-60511142D01*
X208391047Y-60415904D01*
X208343428Y-60225428D01*
X208343428Y-59987333D01*
X208391047Y-59796857D01*
X208438666Y-59701619D01*
X208486285Y-59654000D01*
X208581523Y-59606380D01*
D14*
X213162245Y-84335390D02*
X213876916Y-84335390D01*
X214019850Y-84383035D01*
X214115140Y-84478325D01*
X214162785Y-84621259D01*
X214162785Y-84716549D01*
X213257534Y-83906588D02*
X213209890Y-83858943D01*
X213162245Y-83763653D01*
X213162245Y-83525430D01*
X213209890Y-83430140D01*
X213257534Y-83382495D01*
X213352824Y-83334850D01*
X213448113Y-83334850D01*
X213591048Y-83382495D01*
X214162785Y-83954232D01*
X214162785Y-83334850D01*
X214162785Y-82381955D02*
X214162785Y-82953692D01*
X214162785Y-82667824D02*
X213162245Y-82667824D01*
X213305179Y-82763113D01*
X213400469Y-82858403D01*
X213448113Y-82953692D01*
X202458034Y-88581552D02*
X202458034Y-88391028D01*
X202505665Y-88295766D01*
X202600926Y-88200504D01*
X202791450Y-88152873D01*
X203124867Y-88152873D01*
X203315391Y-88200504D01*
X203410653Y-88295766D01*
X203458284Y-88391028D01*
X203458284Y-88581552D01*
X203410653Y-88676814D01*
X203315391Y-88772076D01*
X203124867Y-88819707D01*
X202791450Y-88819707D01*
X202600926Y-88772076D01*
X202505665Y-88676814D01*
X202458034Y-88581552D01*
X203410653Y-87771826D02*
X203458284Y-87628933D01*
X203458284Y-87390778D01*
X203410653Y-87295516D01*
X203363022Y-87247885D01*
X203267760Y-87200254D01*
X203172498Y-87200254D01*
X203077236Y-87247885D01*
X203029605Y-87295516D01*
X202981974Y-87390778D01*
X202934343Y-87581302D01*
X202886712Y-87676564D01*
X202839081Y-87724195D01*
X202743819Y-87771826D01*
X202648557Y-87771826D01*
X202553295Y-87724195D01*
X202505665Y-87676564D01*
X202458034Y-87581302D01*
X202458034Y-87343147D01*
X202505665Y-87200254D01*
X202458034Y-86914469D02*
X202458034Y-86342897D01*
X203458284Y-86628683D02*
X202458034Y-86628683D01*
X202458034Y-86152373D02*
X202458034Y-85580802D01*
X203458284Y-85866588D02*
X202458034Y-85866588D01*
X203172498Y-85295016D02*
X203172498Y-84818707D01*
X203458284Y-85390278D02*
X202458034Y-85056861D01*
X203458284Y-84723445D01*
X202458034Y-84199504D02*
X202458034Y-84104242D01*
X202505665Y-84008980D01*
X202553295Y-83961350D01*
X202648557Y-83913719D01*
X202839081Y-83866088D01*
X203077236Y-83866088D01*
X203267760Y-83913719D01*
X203363022Y-83961350D01*
X203410653Y-84008980D01*
X203458284Y-84104242D01*
X203458284Y-84199504D01*
X203410653Y-84294766D01*
X203363022Y-84342397D01*
X203267760Y-84390028D01*
X203077236Y-84437659D01*
X202839081Y-84437659D01*
X202648557Y-84390028D01*
X202553295Y-84342397D01*
X202505665Y-84294766D01*
X202458034Y-84199504D01*
X202553295Y-83485040D02*
X202505665Y-83437409D01*
X202458034Y-83342147D01*
X202458034Y-83103992D01*
X202505665Y-83008730D01*
X202553295Y-82961100D01*
X202648557Y-82913469D01*
X202743819Y-82913469D01*
X202886712Y-82961100D01*
X203458284Y-83532671D01*
X203458284Y-82913469D01*
X202458034Y-82294266D02*
X202458034Y-82199004D01*
X202505665Y-82103742D01*
X202553295Y-82056111D01*
X202648557Y-82008480D01*
X202839081Y-81960850D01*
X203077236Y-81960850D01*
X203267760Y-82008480D01*
X203363022Y-82056111D01*
X203410653Y-82103742D01*
X203458284Y-82199004D01*
X203458284Y-82294266D01*
X203410653Y-82389528D01*
X203363022Y-82437159D01*
X203267760Y-82484790D01*
X203077236Y-82532421D01*
X202839081Y-82532421D01*
X202648557Y-82484790D01*
X202553295Y-82437159D01*
X202505665Y-82389528D01*
X202458034Y-82294266D01*
X203458284Y-81008230D02*
X203458284Y-81579802D01*
X203458284Y-81294016D02*
X202458034Y-81294016D01*
X202600926Y-81389278D01*
X202696188Y-81484540D01*
X202743819Y-81579802D01*
X202458034Y-80150873D02*
X202458034Y-80341397D01*
X202505665Y-80436659D01*
X202553295Y-80484290D01*
X202696188Y-80579552D01*
X202886712Y-80627183D01*
X203267760Y-80627183D01*
X203363022Y-80579552D01*
X203410653Y-80531921D01*
X203458284Y-80436659D01*
X203458284Y-80246135D01*
X203410653Y-80150873D01*
X203363022Y-80103242D01*
X203267760Y-80055611D01*
X203029605Y-80055611D01*
X202934343Y-80103242D01*
X202886712Y-80150873D01*
X202839081Y-80246135D01*
X202839081Y-80436659D01*
X202886712Y-80531921D01*
X202934343Y-80579552D01*
X203029605Y-80627183D01*
X203458284Y-79102992D02*
X203458284Y-79674564D01*
X203458284Y-79388778D02*
X202458034Y-79388778D01*
X202600926Y-79484040D01*
X202696188Y-79579302D01*
X202743819Y-79674564D01*
D11*
X207986333Y-93274380D02*
X207653000Y-92798190D01*
X207414904Y-93274380D02*
X207414904Y-92274380D01*
X207795857Y-92274380D01*
X207891095Y-92322000D01*
X207938714Y-92369619D01*
X207986333Y-92464857D01*
X207986333Y-92607714D01*
X207938714Y-92702952D01*
X207891095Y-92750571D01*
X207795857Y-92798190D01*
X207414904Y-92798190D01*
X208938714Y-93274380D02*
X208367285Y-93274380D01*
X208653000Y-93274380D02*
X208653000Y-92274380D01*
X208557761Y-92417238D01*
X208462523Y-92512476D01*
X208367285Y-92560095D01*
M02*
